<svg width="187" height="22" viewBox="0 0 187 22" fill="none" xmlns="http://www.w3.org/2000/svg">
<path d="M15.625 2H6.59375V3.65625H10.2812V14.9219H11.9531V3.65625H15.625V2ZM12.6562 0.59375C13.7083 0.59375 14.6615 0.75 15.5156 1.0625C16.3698 1.375 17.0938 1.80208 17.6875 2.34375C18.2917 2.88542 18.7552 3.52083 19.0781 4.25C19.401 4.96875 19.5625 5.73438 19.5625 6.54688V16.0469C19.5625 16.8594 19.401 17.6302 19.0781 18.3594C18.7552 19.0781 18.2917 19.7083 17.6875 20.25C17.0938 20.7917 16.3698 21.2188 15.5156 21.5312C14.6615 21.8438 13.7083 22 12.6562 22H7.84375C6.79167 22 5.83854 21.8438 4.98438 21.5312C4.13021 21.2188 3.40104 20.7917 2.79688 20.25C2.20312 19.7083 1.74479 19.0781 1.42188 18.3594C1.09896 17.6302 0.9375 16.8594 0.9375 16.0469V6.54688C0.9375 5.73438 1.09896 4.96875 1.42188 4.25C1.74479 3.52083 2.20312 2.88542 2.79688 2.34375C3.40104 1.80208 4.13021 1.375 4.98438 1.0625C5.83854 0.75 6.79167 0.59375 7.84375 0.59375H12.6562ZM31.1562 0.59375C32.2083 0.59375 33.1615 0.75 34.0156 1.0625C34.8698 1.375 35.5938 1.80208 36.1875 2.34375C36.7917 2.88542 37.2552 3.52083 37.5781 4.25C37.901 4.96875 38.0625 5.73438 38.0625 6.54688V16.0469C38.0625 16.8594 37.901 17.6302 37.5781 18.3594C37.2552 19.0781 36.7917 19.7083 36.1875 20.25C35.5938 20.7917 34.8698 21.2188 34.0156 21.5312C33.1615 21.8438 32.2083 22 31.1562 22H26.3438C25.2917 22 24.3385 21.8438 23.4844 21.5312C22.6302 21.2188 21.901 20.7917 21.2969 20.25C20.7031 19.7083 20.2448 19.0781 19.9219 18.3594C19.599 17.6302 19.4375 16.8594 19.4375 16.0469V6.54688C19.4375 5.73438 19.599 4.96875 19.9219 4.25C20.2448 3.52083 20.7031 2.88542 21.2969 2.34375C21.901 1.80208 22.6302 1.375 23.4844 1.0625C24.3385 0.75 25.2917 0.59375 26.3438 0.59375H31.1562ZM34.375 4.53125L34.1562 3.21875L33.1719 2.21875L31.5625 2H27.375L25.7812 2.21875L24.7812 3.21875L24.5938 4.53125V12.4062L24.7812 13.75L25.8125 14.7344L27.375 14.9219H31.5625L33.1719 14.7344L34.1562 13.75L34.375 12.4062V4.53125ZM32.5 13.1094L31.4688 13.2656H27.4688L26.4531 13.1094L26.2188 12.1719V4.6875L26.375 3.82812L27.4688 3.65625H31.4688L32.5625 3.82812L32.7188 4.75V12.2344L32.5 13.1094ZM52.5625 4.5L52.3438 3.1875L51.3438 2.1875L49.75 2H45.8438L43.0312 2.39062V14.9219H44.6875V3.82812L45.9062 3.625H49.6562L50.7344 3.79688L50.8906 4.71875V14.9219H52.5625V4.5ZM49.6562 0.59375C50.7083 0.59375 51.6615 0.75 52.5156 1.0625C53.3698 1.375 54.0938 1.80208 54.6875 2.34375C55.2917 2.88542 55.7552 3.52083 56.0781 4.25C56.401 4.96875 56.5625 5.73438 56.5625 6.54688V16.0469C56.5625 16.8594 56.401 17.6302 56.0781 18.3594C55.7552 19.0781 55.2917 19.7083 54.6875 20.25C54.0938 20.7917 53.3698 21.2188 52.5156 21.5312C51.6615 21.8438 50.7083 22 49.6562 22H44.8438C43.7917 22 42.8385 21.8438 41.9844 21.5312C41.1302 21.2188 40.401 20.7917 39.7969 20.25C39.2031 19.7083 38.7448 19.0781 38.4219 18.3594C38.099 17.6302 37.9375 16.8594 37.9375 16.0469V6.54688C37.9375 5.73438 38.099 4.96875 38.4219 4.25C38.7448 3.52083 39.2031 2.88542 39.7969 2.34375C40.401 1.80208 41.1302 1.375 41.9844 1.0625C42.8385 0.75 43.7917 0.59375 44.8438 0.59375H49.6562ZM68.1562 0.59375C69.2083 0.59375 70.1615 0.75 71.0156 1.0625C71.8698 1.375 72.5938 1.80208 73.1875 2.34375C73.7917 2.88542 74.2552 3.52083 74.5781 4.25C74.901 4.96875 75.0625 5.73438 75.0625 6.54688V16.0469C75.0625 16.8594 74.901 17.6302 74.5781 18.3594C74.2552 19.0781 73.7917 19.7083 73.1875 20.25C72.5938 20.7917 71.8698 21.2188 71.0156 21.5312C70.1615 21.8438 69.2083 22 68.1562 22H63.3438C62.2917 22 61.3385 21.8438 60.4844 21.5312C59.6302 21.2188 58.901 20.7917 58.2969 20.25C57.7031 19.7083 57.2448 19.0781 56.9219 18.3594C56.599 17.6302 56.4375 16.8594 56.4375 16.0469V6.54688C56.4375 5.73438 56.599 4.96875 56.9219 4.25C57.2448 3.52083 57.7031 2.88542 58.2969 2.34375C58.901 1.80208 59.6302 1.375 60.4844 1.0625C61.3385 0.75 62.2917 0.59375 63.3438 0.59375H68.1562ZM70.2031 4.5L69.9688 3.1875L68.9844 2.1875L67.4062 2H64.0156L62.4531 2.1875L61.4688 3.1875L61.2344 4.5V11.9219L61.4688 13.2344L62.4531 14.2188L64.0156 14.4219H67.9531L69.7812 14.1875L69.3906 12.5L67.9219 12.75H64.125L63.125 12.5938L62.9062 11.6562V8.4375H70.2031V4.5ZM62.9062 6.79688V4.6875L63.0312 3.79688L64.125 3.625H67.3125L68.375 3.79688L68.5312 4.71875V6.79688H62.9062ZM86.6562 0.59375C87.7083 0.59375 88.6615 0.75 89.5156 1.0625C90.3698 1.375 91.0938 1.80208 91.6875 2.34375C92.2917 2.88542 92.7552 3.52083 93.0781 4.25C93.401 4.96875 93.5625 5.73438 93.5625 6.54688V16.0469C93.5625 16.8594 93.401 17.6302 93.0781 18.3594C92.7552 19.0781 92.2917 19.7083 91.6875 20.25C91.0938 20.7917 90.3698 21.2188 89.5156 21.5312C88.6615 21.8438 87.7083 22 86.6562 22H81.8438C80.7917 22 79.8385 21.8438 78.9844 21.5312C78.1302 21.2188 77.401 20.7917 76.7969 20.25C76.2031 19.7083 75.7448 19.0781 75.4219 18.3594C75.099 17.6302 74.9375 16.8594 74.9375 16.0469V6.54688C74.9375 5.73438 75.099 4.96875 75.4219 4.25C75.7448 3.52083 76.2031 2.88542 76.7969 2.34375C77.401 1.80208 78.1302 1.375 78.9844 1.0625C79.8385 0.75 80.7917 0.59375 81.8438 0.59375H86.6562ZM87.4531 11.0625V14.9219H89.1094V10.8906L88.5625 9.45312L86.7812 8.8125L88.5 7.98438L88.9844 6.57812V4.84375L88.7969 3.53125L87.7656 2.21875L86.2031 2H80.375V14.9219H82.0469V9.71875H86.1094L87.2188 10.2188L87.4531 11.0625ZM86.1094 3.65625L87.2188 4.14062L87.3281 5.04688V6.70312L87.0938 7.5625L86.1094 8.04688H82.0469V3.65625H86.1094ZM105.156 0.59375C106.208 0.59375 107.161 0.75 108.016 1.0625C108.87 1.375 109.594 1.80208 110.188 2.34375C110.792 2.88542 111.255 3.52083 111.578 4.25C111.901 4.96875 112.062 5.73438 112.062 6.54688V16.0469C112.062 16.8594 111.901 17.6302 111.578 18.3594C111.255 19.0781 110.792 19.7083 110.188 20.25C109.594 20.7917 108.87 21.2188 108.016 21.5312C107.161 21.8438 106.208 22 105.156 22H100.344C99.2917 22 98.3385 21.8438 97.4844 21.5312C96.6302 21.2188 95.901 20.7917 95.2969 20.25C94.7031 19.7083 94.2448 19.0781 93.9219 18.3594C93.599 17.6302 93.4375 16.8594 93.4375 16.0469V6.54688C93.4375 5.73438 93.599 4.96875 93.9219 4.25C94.2448 3.52083 94.7031 2.88542 95.2969 2.34375C95.901 1.80208 96.6302 1.375 97.4844 1.0625C98.3385 0.75 99.2917 0.59375 100.344 0.59375H105.156ZM107.203 4.5L106.969 3.1875L105.984 2.1875L104.406 2H101.016L99.4531 2.1875L98.4688 3.1875L98.2344 4.5V11.9219L98.4688 13.2344L99.4531 14.2188L101.016 14.4219H104.953L106.781 14.1875L106.391 12.5L104.922 12.75H101.125L100.125 12.5938L99.9062 11.6562V8.4375H107.203V4.5ZM99.9062 6.79688V4.6875L100.031 3.79688L101.125 3.625H104.312L105.375 3.79688L105.531 4.71875V6.79688H99.9062ZM125.469 13.2656H120.672V2H119.016V14.9219H125.469V13.2656ZM123.656 0.59375C124.708 0.59375 125.661 0.75 126.516 1.0625C127.37 1.375 128.094 1.80208 128.688 2.34375C129.292 2.88542 129.755 3.52083 130.078 4.25C130.401 4.96875 130.562 5.73438 130.562 6.54688V16.0469C130.562 16.8594 130.401 17.6302 130.078 18.3594C129.755 19.0781 129.292 19.7083 128.688 20.25C128.094 20.7917 127.37 21.2188 126.516 21.5312C125.661 21.8438 124.708 22 123.656 22H118.844C117.792 22 116.839 21.8438 115.984 21.5312C115.13 21.2188 114.401 20.7917 113.797 20.25C113.203 19.7083 112.745 19.0781 112.422 18.3594C112.099 17.6302 111.938 16.8594 111.938 16.0469V6.54688C111.938 5.73438 112.099 4.96875 112.422 4.25C112.745 3.52083 113.203 2.88542 113.797 2.34375C114.401 1.80208 115.13 1.375 115.984 1.0625C116.839 0.75 117.792 0.59375 118.844 0.59375H123.656ZM136.094 13.2656V14.9219H145.125V13.2656H141.453V3.65625H145.125V2H136.094V3.65625H139.781V13.2656H136.094ZM142.156 0.59375C143.208 0.59375 144.161 0.75 145.016 1.0625C145.87 1.375 146.594 1.80208 147.188 2.34375C147.792 2.88542 148.255 3.52083 148.578 4.25C148.901 4.96875 149.062 5.73438 149.062 6.54688V16.0469C149.062 16.8594 148.901 17.6302 148.578 18.3594C148.255 19.0781 147.792 19.7083 147.188 20.25C146.594 20.7917 145.87 21.2188 145.016 21.5312C144.161 21.8438 143.208 22 142.156 22H137.344C136.292 22 135.339 21.8438 134.484 21.5312C133.63 21.2188 132.901 20.7917 132.297 20.25C131.703 19.7083 131.245 19.0781 130.922 18.3594C130.599 17.6302 130.438 16.8594 130.438 16.0469V6.54688C130.438 5.73438 130.599 4.96875 130.922 4.25C131.245 3.52083 131.703 2.88542 132.297 2.34375C132.901 1.80208 133.63 1.375 134.484 1.0625C135.339 0.75 136.292 0.59375 137.344 0.59375H142.156ZM160.453 2H156.688L155.078 2.1875L154.094 3.1875L153.859 4.5V12.4375L154.094 13.75L155.109 14.7344L156.688 14.9219H160.453L162.281 14.7031L161.891 13.0156L160.422 13.2656H156.781L155.75 13.1094L155.531 12.1719V4.65625L155.688 3.79688L156.781 3.625H160.359L161.969 3.89062L162.281 2.21875L160.453 2ZM160.656 0.59375C161.708 0.59375 162.661 0.75 163.516 1.0625C164.37 1.375 165.094 1.80208 165.688 2.34375C166.292 2.88542 166.755 3.52083 167.078 4.25C167.401 4.96875 167.562 5.73438 167.562 6.54688V16.0469C167.562 16.8594 167.401 17.6302 167.078 18.3594C166.755 19.0781 166.292 19.7083 165.688 20.25C165.094 20.7917 164.37 21.2188 163.516 21.5312C162.661 21.8438 161.708 22 160.656 22H155.844C154.792 22 153.839 21.8438 152.984 21.5312C152.13 21.2188 151.401 20.7917 150.797 20.25C150.203 19.7083 149.745 19.0781 149.422 18.3594C149.099 17.6302 148.938 16.8594 148.938 16.0469V6.54688C148.938 5.73438 149.099 4.96875 149.422 4.25C149.745 3.52083 150.203 2.88542 150.797 2.34375C151.401 1.80208 152.13 1.375 152.984 1.0625C153.839 0.75 154.792 0.59375 155.844 0.59375H160.656ZM179.156 0.59375C180.208 0.59375 181.161 0.75 182.016 1.0625C182.87 1.375 183.594 1.80208 184.188 2.34375C184.792 2.88542 185.255 3.52083 185.578 4.25C185.901 4.96875 186.062 5.73438 186.062 6.54688V16.0469C186.062 16.8594 185.901 17.6302 185.578 18.3594C185.255 19.0781 184.792 19.7083 184.188 20.25C183.594 20.7917 182.87 21.2188 182.016 21.5312C181.161 21.8438 180.208 22 179.156 22H174.344C173.292 22 172.339 21.8438 171.484 21.5312C170.63 21.2188 169.901 20.7917 169.297 20.25C168.703 19.7083 168.245 19.0781 167.922 18.3594C167.599 17.6302 167.438 16.8594 167.438 16.0469V6.54688C167.438 5.73438 167.599 4.96875 167.922 4.25C168.245 3.52083 168.703 2.88542 169.297 2.34375C169.901 1.80208 170.63 1.375 171.484 1.0625C172.339 0.75 173.292 0.59375 174.344 0.59375H179.156ZM182.094 10.0312L181.875 8.6875L180.875 7.70312L179.25 7.53125H175.75L174.797 7.34375C174.745 7.16667 174.708 7.01042 174.688 6.875C174.667 6.72917 174.63 6.57812 174.578 6.42188V4.78125L174.797 3.85938L175.828 3.65625H179.797L181.266 3.95312L181.641 2.25L179.828 2H175.719L174.156 2.21875L173.141 3.21875L172.938 4.53125V6.67188L173.141 7.98438L174.156 8.96875L175.719 9.17188H179.25L180.203 9.32812C180.234 9.48438 180.271 9.63021 180.312 9.76562C180.354 9.90104 180.391 10.0417 180.422 10.1875V12.2344C180.401 12.3698 180.365 12.5156 180.312 12.6719C180.271 12.8281 180.234 12.974 180.203 13.1094L179.188 13.2656H175.312L173.781 13.0156L173.391 14.7031L175.219 14.9219H179.281L180.875 14.7344L181.875 13.75L182.094 12.4062V10.0312Z" fill="#292929"/>
</svg>
